# AST/ASF file generated using VICON BodyLanguage
# -----------------------------------------------
:version 1.10
:name VICON
:units
  mass 1.0
  length 0.45
  angle deg
:documentation
   .ast/.asf automatically generated from VICON data using
   VICON BodyBuilder and BodyLanguage model FoxedUp or BRILLIANT.MOD
:root
   order TX TY TZ RX RY RZ
   axis XYZ
   position 0 0 0  
   orientation 0 0 0 
:bonedata
  begin
     id 1 
     name lhipjoint
     direction 0.64773 -0.699417 0.302095 
     length 2.48597 
     axis 0 0 0  XYZ
  end
  begin
     id 2 
     name lfemur
     direction 0.34202 -0.939693 0  
     length 6.71947  
     axis 0 0 20  XYZ
    dof rx ry rz
    limits (-160.0 20.0)
           (-70.0 70.0)
           (-60.0 70.0)
  end
  begin
     id 3 
     name ltibia
     direction 0.34202 -0.939693 0   
     length 8.08777   
     axis 0 0 20   XYZ
    dof rx
    limits (-10.0 170.0)
  end
  begin
     id 4 
     name lfoot
     direction 0.0808503 -0.222134 0.971658   
     length 2.08264   
     axis -90 7.62852e-016 20   XYZ
    dof rx rz
    limits (-45.0 90.0)
           (-70.0 20.0)
  end
  begin
     id 5 
     name ltoes
     direction 1.53502e-011 -4.22007e-011 1   
     length 1.04662   
     axis -90 7.62852e-016 20   XYZ
    dof rx
    limits (-90.0 20.0)
  end
  begin
     id 6 
     name rhipjoint
     direction -0.610924 -0.726792 0.313919   
     length 2.39233  
     axis 0 0 0  XYZ 
  end
  begin
     id 7 
     name rfemur
     direction -0.34202 -0.939693 0   
     length 6.96955   
     axis 0 0 -20   XYZ
    dof rx ry rz
    limits (-160.0 20.0)
           (-70.0 70.0)
           (-70.0 60.0)
  end
  begin
     id 8 
     name rtibia
     direction -0.34202 -0.939693 0   
     length 8.19584   
     axis 0 0 -20   XYZ
    dof rx
    limits (-10.0 170.0)
 end
 begin
     id 9 
     name rfoot
     direction -0.077777 -0.213691 0.9738   
     length 2.07539  
     axis -90 -7.62852e-016 -20   XYZ
    dof rx rz
    limits (-45.0 90.0)
           (-20.0 70.0)
  end
  begin
     id 10 
     name rtoes
     direction -1.53558e-011 -4.22006e-011 1   
     length 1.04381   
     axis -90 -7.62852e-016 -20   XYZ
    dof rx
    limits (-90.0 20.0)
  end
  begin
     id 11 
     name lowerback
     direction -0.00971646 0.996074 0.0879841   
     length 1.67643   
     axis 0 0 0   XYZ
    dof rx ry rz
    limits (-20.0 45.0)
           (-30.0 30.0)
           (-30.0 30.0)
  end
  begin
     id 12 
     name upperback
     direction 0.0127391 0.991676 0.128127   
     length 1.63741   
     axis 0 0 0   XYZ
    dof rx ry rz
    limits (-20.0 45.0)
           (-30.0 30.0)
           (-30.0 30.0)
  end
  begin
     id 13 
     name thorax
     direction 0.0167583 0.996049 0.0872067   
     length 1.65931   
     axis 0 0 0   XYZ
    dof rx ry rz
    limits (-20.0 45.0)
           (-30.0 30.0)
           (-30.0 30.0)
  end
  begin
     id 14 
     name lowerneck
     direction -0.0317829 0.998312 0.0486079   
     length 1.79021   
     axis 0 0 0   XYZ
    dof rx ry rz
    limits (-20.0 45.0)
           (-30.0 30.0)
           (-30.0 30.0)
  end
  begin
     id 15 
     name upperneck
     direction 0.0896851 0.972452 -0.215159   
     length 1.78797   
     axis 0 0 0   XYZ
    dof rx ry rz
    limits (-20.0 45.0)
           (-30.0 30.0)
           (-30.0 30.0)
  end
  begin
     id 16
     name head
     direction 0.0310949 0.996503 -0.0775582  
     length 1.81549  
     axis 0 0 0   XYZ
    dof rx ry rz
    limits (-20.0 45.0)
           (-30.0 30.0)
           (-30.0 30.0)
  end
  begin
     id 17 
     name lclavicle
     direction 0.853638 0.502051 -0.138733  
     length 3.31627  
     axis 0 0 0   XYZ
    dof ry rz
    limits (-20.0 10.0)
           (0.0 20.0)
  end
  begin
     id 18 
     name lhumerus
     direction 1 -4.48962e-011 -1.41788e-018   
     length 5.54893   
     axis 180 -30 -90   XYZ
    dof rx ry rz
    limits (-60.0 90.0)
           (-90.0 90.0)
           (-90.0 90.0)
  end
  begin
     id 19
     name lradius
     direction 1 -4.48962e-011 -4.95754e-027   
     length 3.02898   
     axis 180 -30 -90   XYZ
    dof rx
    limits (-10.0 170.0)
  end
  begin
     id 20
     name lwrist
     direction 1 -4.48952e-011 -1.03764e-026   
     length 1.51449   
     axis 9.09556e-015 90 90   XYZ
    dof ry
    limits (-180.0 0.0)
 end
  begin
     id 21 
     name lhand
     direction 1 -4.4902e-011 -2.07528e-026   
     length 0.640951   
     axis 1.3242e-014 90 90   XYZ
    dof rx rz
    limits (-90.0 90.0)
           (-45.0 45.0)
  end
  begin
     id 22 
     name lfingers
     direction 1 -4.49014e-011 -4.15056e-026   
     length 0.516751   
     axis 2.64841e-014 90 90   XYZ
    dof rx
    limits (0.0 90.0)
  end
  begin
     id 23
     name lthumb
     direction 0.707107 -6.35008e-011 0.707107   
     length 0.741954   
     axis -90 45 2.85299e-015   XYZ
    dof rx rz
    limits (-45.0 45.0)
           (-45.0 45.0)
  end
  begin
     id 24 
     name rclavicle
     direction -0.888531 0.455324 -0.0565039   
     length 3.20126  
     axis 0 0 0   XYZ 
    dof ry rz
    limits (-10.0 20.0)
           (-20.0 0.0)
  end
  begin
     id 25 
     name rhumerus
     direction -1 -4.48946e-011 -8.98298e-028  
     length 5.3519   
     axis 180 30 90   XYZ
    dof rx ry rz
    limits (-90.0 60.0)
           (-90.0 90.0)
           (-90.0 90.0)
  end
  begin
     id 26 
     name rradius
     direction -1 -4.4899e-011 -3.18779e-027   
     length 3.02531   
     axis 180 30 90   XYZ
    dof rx
    limits (-10.0 170.0)
  end
  begin
     id 27 
     name rwrist
     direction -1 -4.4897e-011 -1.03764e-026   
     length 1.51266   
     axis 9.09556e-015 -90 -90   XYZ
    dof ry
    limits (-180.0 0.0)
  end
  begin
     id 28
     name rhand
     direction -1 -4.48941e-011 -2.07528e-026   
     length 0.78389   
     axis 1.3242e-014 -90 -90   XYZ
    dof rx rz
    limits (-90.0 90.0)
           (-45.0 45.0)
  end
  begin
     id 29
     name rfingers
     direction -1 -4.49012e-011 -4.15056e-026   
     length 0.631992   
     axis 2.64841e-014 -90 -90   XYZ
    dof rx
    limits (0.0 90.0)
  end
  begin
     id 30
     name rthumb
     direction -0.707107 -6.3496e-011 0.707107   
     length 0.907418   
     axis -90 -45 -2.85299e-015   XYZ
    dof rx rz
    limits (-45.0 45.0)
           (-45.0 45.0)
  end
:hierarchy
  begin
    root lhipjoint rhipjoint lowerback
    lhipjoint lfemur
    lfemur ltibia
    ltibia lfoot
    lfoot ltoes
    rhipjoint rfemur
    rfemur rtibia
    rtibia rfoot
    rfoot rtoes
    lowerback upperback
    upperback thorax
    thorax lowerneck lclavicle rclavicle
    lowerneck upperneck
    upperneck head
    lclavicle lhumerus
    lhumerus lradius
    lradius lwrist
    lwrist lhand lthumb
    lhand lfingers
    rclavicle rhumerus
    rhumerus rradius
    rradius rwrist
    rwrist rhand rthumb
    rhand rfingers
  end

#!OML:ASF E:\Style3\Style3.ASF
:FULLY-SPECIFIED
:DEGREES
429
root -4.11839 13.3683 -0.563865 -82.0217 97.2244 -129.293
lowerback 43.0799 -4.0796 2.74624
upperback 8.18971 -1.88131 4.83793
thorax -11.1398 -0.529071 4.59739
lowerneck -3.37063 -7.61986 -5.51599
upperneck -19.8816 -7.44397 20.5966
head -4.13903 -4.46442 7.59894
rclavicle -6.87795e-014 -8.61297e-015
rhumerus 38.171 7.62694 -45.7204
rradius 135.379
rwrist -8.59968
rhand 15.4528 15.4794
rfingers 7.12502
rthumb 40.2777 -9.66229
lclavicle -6.87795e-014 -8.61297e-015
lhumerus 36.118 -2.74394 49.5842
lradius 135.472
lwrist 11.2613
lhand 10.8286 33.4774
lfingers 7.12502
lthumb 35.9118 59.8155
rfemur -113.417 -10.3583 10.0239
rtibia 85.5417
rfoot -18.7187 -3.84905
rtoes -27.8185
lfemur -112.233 -5.83408 -22.7695
ltibia 84.9911
lfoot -17.4887 18.6161
ltoes -14.3712
430
root -4.09376 13.3605 -0.596881 -84.8227 97.4155 -132.172
lowerback 43.0803 -4.11321 2.87453
upperback 8.22114 -1.84904 4.96502
thorax -11.1057 -0.520589 4.6554
lowerneck -2.46159 -7.48096 -5.49826
upperneck -21.0446 -7.04682 20.8757
head -4.68793 -4.37188 7.80917
rclavicle 9.26337e-014 -7.53208e-015
rhumerus 38.0687 7.43975 -46.231
rradius 135.697
rwrist -9.1463
rhand 14.2886 15.8754
rfingers 7.12502
rthumb 39.1816 -9.59236
lclavicle 9.26337e-014 -7.53208e-015
lhumerus 36.1898 -2.99735 49.413
lradius 135.262
lwrist 11.5713
lhand 12.8885 34.1135
lfingers 7.12502
lthumb 37.8606 59.9505
rfemur -113.519 -10.3482 10.0122
rtibia 85.3977
rfoot -18.6941 -3.54169
rtoes -28.3195
lfemur -112.261 -5.32461 -23.8387
ltibia 85.0327
lfoot -17.4035 18.1733
ltoes -14.844
431
root -4.07898 13.3745 -0.630039 -86.283 97.7422 -133.736
lowerback 43.0477 -4.19254 2.95238
upperback 8.20515 -1.89591 5.09305
thorax -11.1111 -0.545795 4.77654
lowerneck -2.35323 -7.5179 -5.30518
upperneck -21.2344 -7.08231 20.8271
head -4.77389 -4.41856 7.7772
rclavicle 1.15096e-013 -4.11236e-015
rhumerus 37.8628 6.80057 -46.7074
rradius 136.145
rwrist -9.82079
rhand 13.3298 16.2209
rfingers 7.12502
rthumb 38.2772 -9.50239
lclavicle 1.15096e-013 -4.11236e-015
lhumerus 36.1847 -3.8925 48.821
lradius 135.185
lwrist 10.0016
lhand 13.4533 34.7109
lfingers 7.12502
lthumb 38.3938 60.4019
rfemur -113.57 -10.4783 9.85425
rtibia 85.1484
rfoot -18.6698 -3.14577
rtoes -27.9516
lfemur -112.151 -5.33104 -24.2575
ltibia 84.8393
lfoot -17.3397 18.2789
ltoes -14.9776
432
root -4.07562 13.3963 -0.663775 -86.1525 98.1768 -133.962
lowerback 42.697 -4.30405 2.99456
upperback 8.11894 -2.02419 5.25116
thorax -11.0964 -0.609791 4.9781
lowerneck -2.41471 -7.5857 -5.24034
upperneck -21.1419 -7.2004 20.825
head -4.72253 -4.48218 7.75527
rclavicle 5.96354e-015 4.82736e-014
rhumerus 37.6971 6.24503 -47.0802
rradius 136.529
rwrist -10.0339
rhand 11.8277 16.0782
rfingers 7.12502
rthumb 36.8578 -10.0229
lclavicle 5.96354e-015 4.82736e-014
lhumerus 36.1842 -4.32015 48.6504
lradius 135.084
lwrist 9.98125
lhand 15.7161 34.8754
lfingers 7.12502
lthumb 40.5253 59.9408
rfemur -113.85 -10.7757 9.61147
rtibia 84.8169
rfoot -18.4949 -2.81761
rtoes -27.5674
lfemur -112.23 -5.99349 -23.715
ltibia 84.5024
lfoot -17.3955 19.1385
ltoes -14.4557
433
root -4.06157 13.4106 -0.698283 -86.9883 98.6028 -134.973
lowerback 42.6142 -4.39508 3.02368
upperback 8.06454 -2.11128 5.38608
thorax -11.1271 -0.652449 5.14989
lowerneck -2.82401 -7.73379 -5.06057
upperneck -20.6512 -7.50383 20.7177
head -4.47742 -4.61048 7.63416
rclavicle -1.37161e-014 1.02343e-014
rhumerus 37.5146 5.87815 -47.5343
rradius 136.766
rwrist -9.32394
rhand 10.0242 15.9374
rfingers 7.12502
rthumb 35.1493 -10.5837
lclavicle -1.37161e-014 1.02343e-014
lhumerus 36.1467 -4.84406 48.4996
lradius 135.089
lwrist 10.2053
lhand 17.7273 35.0292
lfingers 7.12502
lthumb 42.4124 59.4795
rfemur -113.911 -10.9649 9.37168
rtibia 84.5136
rfoot -18.3602 -2.57612
rtoes -27.6133
lfemur -112.153 -6.2142 -23.9271
ltibia 84.2735
lfoot -17.3745 19.5218
ltoes -14.3955
434
root -4.04024 13.4292 -0.736651 -89.4494 98.9903 -137.509
lowerback 42.6671 -4.41188 3.05622
upperback 8.08546 -2.10162 5.48301
thorax -11.119 -0.651714 5.23672
lowerneck -3.25113 -7.88433 -4.8783
upperneck -20.1892 -7.7973 20.6728
head -4.23768 -4.73728 7.53458
rclavicle 8.18993e-014 4.90206e-014
rhumerus 37.4411 4.66634 -48.1738
rradius 136.826
rwrist -8.97515
rhand 9.20165 16.5917
rfingers 7.12502
rthumb 34.3687 -10.1095
lclavicle 8.18993e-014 4.90206e-014
lhumerus 36.1689 -5.46864 48.2673
lradius 135.244
lwrist 10.6463
lhand 19.5336 35.3256
lfingers 7.12502
lthumb 44.1003 59.171
rfemur -113.813 -10.9548 9.22014
rtibia 84.1805
rfoot -18.3408 -2.31007
rtoes -28.0317
lfemur -111.997 -6.30277 -23.9945
ltibia 84.1464
lfoot -17.4017 20.043
ltoes -14.2521
